<svg xmlns="http://www.w3.org/2000/svg" width="41" height="41" fill="none" viewBox="0 0 41 41">
  <path fill="#fff" d="M19.56 37.54c-2.249-.113-4.356-.64-6.32-1.58a17.351 17.351 0 0 1-5.125-3.694c-1.452-1.523-2.598-3.295-3.438-5.317-.84-2.022-1.26-4.171-1.26-6.449 0-2.363.448-4.584 1.345-6.662.897-2.079 2.114-3.887 3.652-5.424 1.537-1.538 3.345-2.755 5.424-3.652 2.078-.897 4.299-1.345 6.662-1.345 4.242 0 7.93 1.338 11.061 4.014 3.133 2.677 5.054 6.036 5.766 10.08h-2.605a14.514 14.514 0 0 0-3.032-6.407c-1.538-1.879-3.46-3.288-5.766-4.228v.769c0 .996-.342 1.865-1.025 2.605-.683.74-1.523 1.11-2.52 1.11h-3.715v3.716c0 .484-.193.883-.577 1.196-.384.313-.819.47-1.302.47H13.24V20.5h4.698v5.338h-2.862l-8.712-8.712c-.143.57-.242 1.132-.3 1.687A16.527 16.527 0 0 0 5.98 20.5c0 3.844 1.296 7.16 3.887 9.951 2.59 2.79 5.822 4.3 9.695 4.527v2.563Zm16.742-1.11-5.723-5.723a7.133 7.133 0 0 1-1.943.983 6.904 6.904 0 0 1-2.157.341c-2.021 0-3.737-.704-5.146-2.114-1.41-1.41-2.114-3.125-2.114-5.146 0-2.022.704-3.737 2.114-5.146 1.41-1.41 3.125-2.115 5.146-2.115 2.022 0 3.737.705 5.147 2.114 1.409 1.41 2.114 3.125 2.114 5.147a6.54 6.54 0 0 1-.363 2.157 9.464 9.464 0 0 1-.961 1.985l5.723 5.68-1.837 1.837Zm-9.822-6.96c1.31 0 2.42-.456 3.332-1.367.91-.911 1.366-2.021 1.366-3.331s-.455-2.42-1.366-3.331c-.912-.912-2.022-1.367-3.332-1.367s-2.42.456-3.331 1.367c-.911.91-1.367 2.021-1.367 3.33 0 1.31.456 2.421 1.367 3.332s2.021 1.367 3.331 1.367Z"/>
</svg>
