<svg xmlns="http://www.w3.org/2000/svg" width="100" height="100" fill="none" viewBox="0 0 100 100">
  <g clip-path="url(#a)">
    <path fill="#fff" d="M50 9.012c13.35 0 14.933.05 20.208.292 13.55.617 19.88 7.046 20.496 20.496.242 5.27.288 6.854.288 20.204 0 13.354-.05 14.934-.288 20.204-.62 13.438-6.933 19.88-20.496 20.496-5.275.242-6.85.292-20.208.292-13.35 0-14.933-.05-20.204-.292-13.584-.62-19.88-7.079-20.496-20.5-.242-5.27-.292-6.85-.292-20.204 0-13.35.055-14.93.292-20.204C9.92 16.35 16.233 9.916 29.796 9.3 35.07 9.062 36.65 9.012 50 9.012ZM50 0C36.42 0 34.72.058 29.387.3 11.23 1.133 1.137 11.208.305 29.383.058 34.721 0 36.421 0 50c0 13.58.058 15.283.3 20.617.833 18.158 10.908 28.25 29.083 29.083 5.338.242 7.038.3 20.617.3 13.58 0 15.283-.058 20.617-.3 18.141-.833 28.258-10.908 29.079-29.083.246-5.334.304-7.038.304-20.617 0-13.58-.058-15.28-.3-20.613-.817-18.14-10.904-28.25-29.08-29.082C65.284.058 63.58 0 50 0Zm0 24.325c-14.18 0-25.675 11.496-25.675 25.675 0 14.18 11.496 25.68 25.675 25.68 14.18 0 25.675-11.497 25.675-25.68 0-14.18-11.496-25.675-25.675-25.675Zm0 42.342c-9.204 0-16.667-7.459-16.667-16.667 0-9.204 7.463-16.667 16.667-16.667S66.667 40.796 66.667 50c0 9.208-7.463 16.667-16.667 16.667Zm26.692-49.355a6.002 6.002 0 0 0-6.004 6c0 3.313 2.687 6 6.004 6a5.998 5.998 0 0 0 5.996-6c0-3.312-2.684-6-5.996-6Z"/>
  </g>
  <defs>
    <clipPath id="a">
      <path fill="#fff" d="M0 0h100v100H0z"/>
    </clipPath>
  </defs>
</svg>
