<svg xmlns="http://www.w3.org/2000/svg" width="44" height="44" fill="none" viewBox="0 0 44 44">
  <path fill="#fff" d="M42.578 10.614a16.318 16.318 0 0 1-4.632 1.267 8.045 8.045 0 0 0 3.546-4.425 16.163 16.163 0 0 1-5.118 1.937 8.046 8.046 0 0 0-5.872-2.518c-4.45 0-8.056 3.575-8.056 7.983 0 .623.073 1.23.21 1.82a22.955 22.955 0 0 1-16.6-8.345 7.886 7.886 0 0 0-1.09 4.02c0 2.77 1.418 5.21 3.582 6.648a8.2 8.2 0 0 1-3.652-.997v.093c0 3.873 2.777 7.097 6.459 7.832a8.016 8.016 0 0 1-2.117.286 8.58 8.58 0 0 1-1.518-.147c1.025 3.165 4 5.478 7.523 5.546a16.275 16.275 0 0 1-10.005 3.418c-.652 0-1.29-.037-1.92-.114A23.014 23.014 0 0 0 15.665 38.5c14.815 0 22.92-12.166 22.92-22.72 0-.346-.011-.69-.028-1.03a15.84 15.84 0 0 0 4.021-4.136Z"/>
</svg>
